<?xml version="1.0" encoding="utf-8"?>
<!-- Generator: Adobe Illustrator 16.0.4, SVG Export Plug-In . SVG Version: 6.00 Build 0)  -->
<!DOCTYPE svg PUBLIC "-//W3C//DTD SVG 1.1//EN" "http://www.w3.org/Graphics/SVG/1.1/DTD/svg11.dtd">
<svg version="1.1" id="Layer_1" xmlns="http://www.w3.org/2000/svg" xmlns:xlink="http://www.w3.org/1999/xlink" x="0px" y="0px"
	 width="511.393px" height="473.417px" viewBox="0 0 511.393 473.417" enable-background="new 0 0 511.393 473.417"
	 xml:space="preserve">
<g>
	<g>
		<path fill="#333742" d="M192.692,345.038c0,8.172-6.686,14.857-14.857,14.857H47.69c-8.172,0-14.857-6.686-14.857-14.857V214.893
			c0-8.172,6.686-14.858,14.857-14.858h130.145c8.172,0,14.857,6.687,14.857,14.858V345.038z"/>
	</g>
	<g>
		<path fill="#333742" d="M478.56,345.038c0,8.172-6.686,14.857-14.856,14.857H247.046c-8.172,0-14.857-6.686-14.857-14.857V128.38
			c0-8.172,6.686-14.857,14.857-14.857h216.657c8.171,0,14.856,6.686,14.856,14.857V345.038z"/>
	</g>
</g>
</svg>
